<svg height="115" viewBox="0 0 115 115" width="115" xmlns="http://www.w3.org/2000/svg" xmlns:xlink="http://www.w3.org/1999/xlink"><linearGradient id="a" x1="50%" x2="48.205463%" y1="100%" y2="53.51239%"><stop offset="0" stop-color="#317159"/><stop offset="1" stop-color="#429777"/></linearGradient><g fill="none"><rect fill="url(#a)" height="115" rx="2" width="115"/><g fill="#fff" transform="translate(19 35)"><path d="m6.399 28.888 11.733 11.734c.621.621 1.628.621 2.249 0l3.985-3.986c.621-.62.621-1.627 0-2.248l-10.609-10.61c-.622-.62-.622-1.628 0-2.249l10.609-10.609c.621-.622.621-1.628 0-2.25l-3.985-3.986c-.622-.621-1.628-.621-2.249 0l-11.733 11.734-5.112 5.11c-.62.621-.62 1.629 0 2.249z"/><path d="m77.384 23.777c.621-.62.621-1.628 0-2.249l-5.11-5.11-11.734-11.734c-.621-.621-1.627-.621-2.249 0l-3.985 3.986c-.621.621-.621 1.628 0 2.25l10.608 10.609c.622.621.622 1.629 0 2.249l-10.608 10.61c-.621.621-.621 1.628 0 2.248l3.985 3.986c.621.621 1.628.621 2.249 0l11.733-11.734z"/><path d="m32.502 44.334-6.684-3.403c-.492-.25-.703-.823-.469-1.282l19.506-38.304c.234-.457.822-.624 1.314-.374l6.683 3.403c.493.251.703.825.47 1.282l-19.508 38.304c-.233.458-.819.625-1.312.374z"/></g></g></svg>